<svg width="173" height="44" viewBox="0 0 173 44" fill="none" xmlns="http://www.w3.org/2000/svg">
<path d="M19.3486 7.62081L22.3254 5.6543V44.0007H19.3486V7.62081Z" fill="#FBE25D"/>
<path d="M23.3184 4.91571L26.2951 2.94922V43.9995H23.3184V4.91571Z" fill="#FBE25D"/>
<path d="M27.2871 2.3421L30.2639 0.246094V44.0002H27.2871V2.3421Z" fill="#FBE25D"/>
<path d="M31.2559 0L34.2326 2.0894V44H31.2559V0Z" fill="#FBE25D"/>
<path d="M35.2246 2.70312L38.2014 4.91542V43.9992H35.2246V2.70312Z" fill="#FBE25D"/>
<path d="M39.1943 5.53125L42.1711 7.62063V44.0005H39.1943V5.53125Z" fill="#FBE25D"/>
<path d="M44.1553 40.9782L58.7327 38.8379L64.0002 40.9782V43.9999H44.1553V40.9782Z" fill="#FBE25D"/>
<path d="M44.1553 35.8236L58.8552 32.2012L64.0002 35.8236V39.0838L58.8552 36.3799L44.1553 39.0838V35.8236Z" fill="#FBE25D"/>
<path d="M44.1553 30.7267L58.6102 25.8105L64.0002 30.7267V33.6765L58.6102 29.3748L44.1553 33.6765V30.7267Z" fill="#FBE25D"/>
<path d="M44.1553 25.5646L58.6102 18.9277L64.0002 25.5646V28.5143L58.6102 23.2294L44.1553 28.5143V25.5646Z" fill="#FBE25D"/>
<path d="M44.1553 20.4014L58.6102 12.7812L64.0002 20.4014V23.3511L58.6102 16.2226L44.1553 23.3511V20.4014Z" fill="#FBE25D"/>
<path d="M0 41.0509L5.95349 39.4531L17.3643 41.0509V44.0006H5.95349H0V41.0509Z" fill="#FBE25D"/>
<path d="M0 27.0398L5.95349 22.6152L17.3643 27.6543V30.6041L5.95349 26.3024L0 29.9895V27.0398Z" fill="#FBE25D"/>
<path d="M0 31.7089L5.95349 28.2676L17.3643 31.9547V34.9044L5.95349 31.9547L0 34.6586V31.7089Z" fill="#FBE25D"/>
<path d="M0 36.38L5.95349 33.9219L17.3643 36.38V39.0839L5.95349 36.8716L0 39.0839V36.38Z" fill="#FBE25D"/>
<path d="M84.712 30.49V32.164H79.402V35.854H83.542V37.528H79.402V43H77.35V30.49H84.712ZM88.8277 30.49V38.464C88.8277 39.412 89.0737 40.126 89.5657 40.606C90.0697 41.086 90.7657 41.326 91.6537 41.326C92.5537 41.326 93.2497 41.086 93.7417 40.606C94.2457 40.126 94.4977 39.412 94.4977 38.464V30.49H96.5497V38.428C96.5497 39.448 96.3277 40.312 95.8837 41.02C95.4397 41.728 94.8457 42.256 94.1017 42.604C93.3577 42.952 92.5357 43.126 91.6357 43.126C90.7357 43.126 89.9137 42.952 89.1697 42.604C88.4377 42.256 87.8557 41.728 87.4237 41.02C86.9917 40.312 86.7757 39.448 86.7757 38.428V30.49H88.8277ZM101.453 41.344H105.683V43H99.4014V30.49H101.453V41.344ZM109.631 41.344H113.861V43H107.579V30.49H109.631V41.344ZM119.88 43.126C119.04 43.126 118.284 42.982 117.612 42.694C116.94 42.394 116.412 41.974 116.028 41.434C115.644 40.894 115.452 40.264 115.452 39.544H117.648C117.696 40.084 117.906 40.528 118.278 40.876C118.662 41.224 119.196 41.398 119.88 41.398C120.588 41.398 121.14 41.23 121.536 40.894C121.932 40.546 122.13 40.102 122.13 39.562C122.13 39.142 122.004 38.8 121.752 38.536C121.512 38.272 121.206 38.068 120.834 37.924C120.474 37.78 119.97 37.624 119.322 37.456C118.506 37.24 117.84 37.024 117.324 36.808C116.82 36.58 116.388 36.232 116.028 35.764C115.668 35.296 115.488 34.672 115.488 33.892C115.488 33.172 115.668 32.542 116.028 32.002C116.388 31.462 116.892 31.048 117.54 30.76C118.188 30.472 118.938 30.328 119.79 30.328C121.002 30.328 121.992 30.634 122.76 31.246C123.54 31.846 123.972 32.674 124.056 33.73H121.788C121.752 33.274 121.536 32.884 121.14 32.56C120.744 32.236 120.222 32.074 119.574 32.074C118.986 32.074 118.506 32.224 118.134 32.524C117.762 32.824 117.576 33.256 117.576 33.82C117.576 34.204 117.69 34.522 117.918 34.774C118.158 35.014 118.458 35.206 118.818 35.35C119.178 35.494 119.67 35.65 120.294 35.818C121.122 36.046 121.794 36.274 122.31 36.502C122.838 36.73 123.282 37.084 123.642 37.564C124.014 38.032 124.2 38.662 124.2 39.454C124.2 40.09 124.026 40.69 123.678 41.254C123.342 41.818 122.844 42.274 122.184 42.622C121.536 42.958 120.768 43.126 119.88 43.126ZM134.883 30.49V32.164H131.553V43H129.501V32.164H126.153V30.49H134.883ZM143.639 43L140.759 37.996H139.193V43H137.141V30.49H141.461C142.421 30.49 143.231 30.658 143.891 30.994C144.563 31.33 145.061 31.78 145.385 32.344C145.721 32.908 145.889 33.538 145.889 34.234C145.889 35.05 145.649 35.794 145.169 36.466C144.701 37.126 143.975 37.576 142.991 37.816L146.087 43H143.639ZM139.193 36.358H141.461C142.229 36.358 142.805 36.166 143.189 35.782C143.585 35.398 143.783 34.882 143.783 34.234C143.783 33.586 143.591 33.082 143.207 32.722C142.823 32.35 142.241 32.164 141.461 32.164H139.193V36.358ZM154.4 43.126C153.236 43.126 152.162 42.856 151.178 42.316C150.206 41.764 149.432 41.002 148.856 40.03C148.292 39.046 148.01 37.942 148.01 36.718C148.01 35.494 148.292 34.396 148.856 33.424C149.432 32.452 150.206 31.696 151.178 31.156C152.162 30.604 153.236 30.328 154.4 30.328C155.576 30.328 156.65 30.604 157.622 31.156C158.606 31.696 159.38 32.452 159.944 33.424C160.508 34.396 160.79 35.494 160.79 36.718C160.79 37.942 160.508 39.046 159.944 40.03C159.38 41.002 158.606 41.764 157.622 42.316C156.65 42.856 155.576 43.126 154.4 43.126ZM154.4 41.344C155.228 41.344 155.966 41.158 156.614 40.786C157.262 40.402 157.766 39.862 158.126 39.166C158.498 38.458 158.684 37.642 158.684 36.718C158.684 35.794 158.498 34.984 158.126 34.288C157.766 33.592 157.262 33.058 156.614 32.686C155.966 32.314 155.228 32.128 154.4 32.128C153.572 32.128 152.834 32.314 152.186 32.686C151.538 33.058 151.028 33.592 150.656 34.288C150.296 34.984 150.116 35.794 150.116 36.718C150.116 37.642 150.296 38.458 150.656 39.166C151.028 39.862 151.538 40.402 152.186 40.786C152.834 41.158 153.572 41.344 154.4 41.344ZM172.259 30.49L168.119 38.464V43H166.067V38.464L161.909 30.49H164.195L167.093 36.628L169.991 30.49H172.259Z" fill="#14171F"/>
</svg>
